<svg viewBox="0 0 64 64" fill="none" xmlns="http://www.w3.org/2000/svg">
  <rect width="64" height="64" rx="14" fill="#1E3A5F"/>
  <!-- Gear teeth -->
  <path d="M30 8 h4 l1 6 l3 1 l4-4 l3 3 l-4 4 l1 3 l6 1 v4 l-6 1 l-1 3 l4 4 l-3 3 l-4-4 l-3 1 l-1 6 h-4 l-1-6 l-3-1 l-4 4 l-3-3 l4-4 l-1-3 l-6-1 v-4 l6-1 l1-3 l-4-4 l3-3 l4 4 l3-1Z" fill="white" stroke="rgba(255,255,255,0.5)" stroke-width="0.5"/>
  <!-- Inner circle -->
  <circle cx="32" cy="32" r="12" fill="#1E3A5F"/>
  <!-- Šahovnica inside gear -->
  <clipPath id="gear-inner">
    <circle cx="32" cy="32" r="11"/>
  </clipPath>
  <g clip-path="url(#gear-inner)">
    <!-- 4x4 checkerboard -->
    <rect x="21" y="21" width="5.5" height="5.5" fill="#DC2626"/>
    <rect x="26.5" y="21" width="5.5" height="5.5" fill="white"/>
    <rect x="32" y="21" width="5.5" height="5.5" fill="#DC2626"/>
    <rect x="37.5" y="21" width="5.5" height="5.5" fill="white"/>
    <rect x="21" y="26.5" width="5.5" height="5.5" fill="white"/>
    <rect x="26.5" y="26.5" width="5.5" height="5.5" fill="#DC2626"/>
    <rect x="32" y="26.5" width="5.5" height="5.5" fill="white"/>
    <rect x="37.5" y="26.5" width="5.5" height="5.5" fill="#DC2626"/>
    <rect x="21" y="32" width="5.5" height="5.5" fill="#DC2626"/>
    <rect x="26.5" y="32" width="5.5" height="5.5" fill="white"/>
    <rect x="32" y="32" width="5.5" height="5.5" fill="#DC2626"/>
    <rect x="37.5" y="32" width="5.5" height="5.5" fill="white"/>
    <rect x="21" y="37.5" width="5.5" height="5.5" fill="white"/>
    <rect x="26.5" y="37.5" width="5.5" height="5.5" fill="#DC2626"/>
    <rect x="32" y="37.5" width="5.5" height="5.5" fill="white"/>
    <rect x="37.5" y="37.5" width="5.5" height="5.5" fill="#DC2626"/>
  </g>
</svg>
